<svg xmlns="http://www.w3.org/2000/svg" viewBox="0 0 400 300" width="406" height="306" class="illustration styles_illustrationTablet__1DWOa"><g id="_579_football_team_flatline" data-name="#579_football_team_flatline"><path d="M64,173.47s2.06,11.94,1.62,14-8.07,33-11.15,39.16c0,0-7.78,10.71-8.51,14.67s-.88,8.07,3.38,8.66,8.5.44,10.41-3.08,9.68-24.79,9.68-24.79L75,171.62Z" fill="#fff"></path><path d="M52.78,250.72a25,25,0,0,1-3.5-.28,4.54,4.54,0,0,1-3.22-1.76c-1.39-1.92-1-5-.58-7.48.75-4,8.27-14.43,8.6-14.87,2.91-5.85,10.51-36.4,11.06-39,.34-1.61-1-10.51-1.62-13.8a.52.52,0,0,1,.09-.38.49.49,0,0,1,.32-.2l11-1.86a.53.53,0,0,1,.43.13.51.51,0,0,1,.15.42l-5.57,50.46,0,.12c-.32.87-7.81,21.34-9.71,24.86C58.65,250,55.75,250.72,52.78,250.72Zm11.81-76.84c.42,2.48,1.94,11.77,1.53,13.68-.33,1.53-8,32.95-11.19,39.29-.12.17-7.76,10.73-8.47,14.53-.42,2.28-.75,5.11.41,6.71a3.49,3.49,0,0,0,2.54,1.36c5.4.75,8.45-.12,9.91-2.82C61.14,243.27,68.5,223.18,69,222l5.5-49.74Z" fill="#231f20"></path><path d="M79.61,233.13a22.87,22.87,0,0,1-45.73,0,16.14,16.14,0,0,1,.09-1.85,22.86,22.86,0,0,1,45.6.57h0C79.6,232.27,79.61,232.7,79.61,233.13Z" fill="#fff"></path><path d="M56.74,256.49a23.38,23.38,0,0,1-23.36-23.36,17.81,17.81,0,0,1,.09-1.9,23.33,23.33,0,0,1,32.25-19.67A22.8,22.8,0,0,1,73,216.32a23.24,23.24,0,0,1,7.1,15.5c0,.43,0,.87,0,1.31a23.4,23.4,0,0,1-16.69,22.39A23.62,23.62,0,0,1,56.74,256.49Zm0-45.73a22.17,22.17,0,0,0-8.59,1.71,22.34,22.34,0,0,0-13.69,18.85c-.05.55-.08,1.12-.08,1.81a22.37,22.37,0,1,0,44.73,0c0-.42,0-.83,0-1.24A22.23,22.23,0,0,0,72.27,217a21.78,21.78,0,0,0-6.94-4.56A22,22,0,0,0,56.74,210.76Z" fill="#231f20"></path><polygon points="56.75 223.36 47.74 229.91 51.18 240.5 62.31 240.5 65.76 229.91 56.75 223.36" fill="#231f20"></polygon><path d="M62.31,241H51.18a.5.5,0,0,1-.48-.35l-3.44-10.59a.52.52,0,0,1,.18-.56l9-6.54a.5.5,0,0,1,.59,0l9,6.54a.51.51,0,0,1,.18.56l-3.44,10.59A.5.5,0,0,1,62.31,241Zm-10.77-1H62l3.22-9.9L56.75,224l-8.42,6.12Z" fill="#231f20"></path><path d="M65.53,212l-8.79,6.38L48,212a22.87,22.87,0,0,1,17.57,0Z" fill="#231f20"></path><path d="M56.74,218.9a.53.53,0,0,1-.29-.1l-8.79-6.39a.5.5,0,0,1-.2-.46.49.49,0,0,1,.31-.4,23.41,23.41,0,0,1,17.95,0,.48.48,0,0,1,.3.4.5.5,0,0,1-.2.46L57,218.8A.54.54,0,0,1,56.74,218.9ZM49,212.14l7.75,5.64,7.76-5.63A22.42,22.42,0,0,0,49,212.14Z" fill="#231f20"></path><path d="M50.22,255a22.82,22.82,0,0,1-13.34-10.6l.4-.83,11,1.41Z" fill="#231f20"></path><path d="M50.22,255.54l-.14,0a23.16,23.16,0,0,1-13.63-10.83.5.5,0,0,1,0-.46l.4-.83a.48.48,0,0,1,.51-.29l11,1.41a.5.5,0,0,1,.42.4l1.9,10a.5.5,0,0,1-.16.46A.46.46,0,0,1,50.22,255.54ZM37.45,244.42a22.11,22.11,0,0,0,12.12,9.89l-1.67-8.84-10.33-1.32Z" fill="#231f20"></path><path d="M76.61,244.44A22.85,22.85,0,0,1,63.27,255l1.9-10,11-1.41Z" fill="#231f20"></path><path d="M63.27,255.54a.46.46,0,0,1-.33-.13.5.5,0,0,1-.16-.46l1.9-10a.5.5,0,0,1,.43-.4l11-1.41a.49.49,0,0,1,.52.29l.39.83a.5.5,0,0,1,0,.46,23.25,23.25,0,0,1-13.63,10.83Zm2.32-10.07-1.67,8.84a22.2,22.2,0,0,0,12.13-9.89l-.13-.27Z" fill="#231f20"></path><path d="M42.82,226.43,34,231.28a22.72,22.72,0,0,1,7-14.7Z" fill="#231f20"></path><path d="M34,231.78a.47.47,0,0,1-.27-.08.48.48,0,0,1-.22-.45,23.29,23.29,0,0,1,7.14-15,.48.48,0,0,1,.5-.11.51.51,0,0,1,.34.38l1.86,9.85a.5.5,0,0,1-.25.53l-8.85,4.85A.54.54,0,0,1,34,231.78Zm6.68-14.18a22.26,22.26,0,0,0-6.08,12.79l7.7-4.22Z" fill="#231f20"></path><path d="M79.57,231.85,70.67,227l2-10.29A22.75,22.75,0,0,1,79.57,231.85Z" fill="#231f20"></path><path d="M79.57,232.35a.53.53,0,0,1-.24-.06l-8.9-4.88a.5.5,0,0,1-.25-.53l1.95-10.3a.47.47,0,0,1,.34-.38.49.49,0,0,1,.5.12,23.24,23.24,0,0,1,7.1,15.5.51.51,0,0,1-.23.45A.53.53,0,0,1,79.57,232.35Zm-8.34-5.64L79,231a22.27,22.27,0,0,0-6.06-13.27Z" fill="#231f20"></path><path d="M86,115.83c-4,1.32-14.88,6.46-18.23,15.2-1.79,4.66-7.24,45-7.24,45H75.21Z" fill="#231f20"></path><path d="M75.21,176.54H60.54a.5.5,0,0,1-.49-.57c.22-1.65,5.48-40.46,7.26-45.11,3.24-8.44,13.54-13.84,18.54-15.51a.49.49,0,0,1,.48.1.48.48,0,0,1,.17.46L75.7,176.13A.49.49,0,0,1,75.21,176.54Zm-14.1-1H74.79l10.57-59c-5.06,1.89-14.17,7-17.11,14.63C66.61,135.46,61.78,170.62,61.11,175.54Z" fill="#231f20"></path><path d="M64.6,229.12c0,.73-3.37,15.69-2.2,28.31h64.54s2.64-30.22-3.67-41.51Z" fill="#231f20"></path><path d="M126.94,257.93H62.4a.51.51,0,0,1-.5-.46c-1-10.61,1.24-23,2-27,.12-.66.22-1.24.23-1.35a.52.52,0,0,1,.39-.48l58.68-13.2a.5.5,0,0,1,.54.24c6.31,11.3,3.84,40.56,3.73,41.8A.5.5,0,0,1,126.94,257.93Zm-64.08-1h63.62c.29-3.78,2.06-29.94-3.47-40.44l-58,13-.19,1.11C64.14,234.6,62,246.55,62.86,256.93Z" fill="#231f20"></path><path d="M100.83,109.91s-10.27.69-16.72,7.73S71.49,135.83,70,147s.29,26.7,0,34.33-6.75,49-6.75,49,20.83,10.27,35.2,5.87a193.77,193.77,0,0,0,28.46-11.74l-4.4-36.67c1.17-7.92,6.52-62.55-2-70.59C118.06,114.86,114,107,100.83,109.91Z" fill="#3B6AE2"></path><path d="M121.69,231.09a.51.51,0,0,1-.5-.44c0-.29-3.23-29-3.63-36.85s0-31.15,0-31.39a.48.48,0,0,1,.51-.49.5.5,0,0,1,.49.51c0,.23-.39,23.5,0,31.32s3.6,36.5,3.63,36.79a.5.5,0,0,1-.44.55Z" fill="#231f20"></path><path d="M120.78,171.52l7.43,16.62s-11.07,32.67-11.4,41.08c0,0-5,6.84-5.42,11.73s1.18,11.15,2.94,12.32,11.93,1,12.61-2,1.66-9.2,1.27-12.33a41.19,41.19,0,0,1,.09-7.62S141.9,205,142.69,196s-3.52-28.17-3.52-28.17Z" fill="#fff"></path><path d="M118.71,254.44a10.5,10.5,0,0,1-4.66-.75c-2-1.31-3.56-7.76-3.16-12.78.38-4.67,4.72-10.88,5.43-11.87.43-8.36,10.38-38,11.36-40.87l-7.36-16.45a.51.51,0,0,1,.36-.69l18.39-3.72a.5.5,0,0,1,.58.38c.18.79,4.31,19.35,3.53,28.32s-13.4,33.57-14.39,35.5a40.5,40.5,0,0,0-.08,7.42c.39,3.12-.54,9.3-1.28,12.5-.2.84-1,1.52-2.24,2A19.28,19.28,0,0,1,118.71,254.44Zm2.78-82.55,7.18,16.05a.5.5,0,0,1,0,.36c-.11.33-11.06,32.7-11.38,40.94a.52.52,0,0,1-.1.27c0,.07-4.94,6.79-5.32,11.48-.39,4.92,1.2,10.85,2.71,11.87,1.19.79,7.13.89,10.23-.33.66-.26,1.48-.71,1.62-1.33.64-2.7,1.65-9,1.27-12.14a41.83,41.83,0,0,1,.08-7.75.49.49,0,0,1,.06-.17c.13-.26,13.56-26.42,14.33-35.22.7-8-2.76-24.51-3.41-27.53Z" fill="#231f20"></path><path d="M116.85,113.23s-10,14-5.52,30.67c2.41,9,9.84,31.73,10.43,32.12s20-4.5,20-4.5-4.27-27.81-9.75-38.18S124.15,117.52,116.85,113.23Z" fill="#231f20"></path><path d="M121.84,176.51c-.25,0-.31,0-.36-.08-.92-.61-8.77-25.4-10.63-32.4-4.45-16.73,5.49-30.95,5.59-31.09a.5.5,0,0,1,.66-.14c6.75,4,9.27,8.78,13.85,17.54l1.45,2.77c5.45,10.32,9.63,37.19,9.8,38.33a.49.49,0,0,1-.37.56C126.34,175.92,122.77,176.51,121.84,176.51ZM117,113.9c-1.51,2.35-9.11,15.12-5.18,29.87,2.41,9.06,9.18,29.58,10.23,31.77,1.7-.12,12.26-2.67,19.09-4.39-.58-3.63-4.63-28.12-9.62-37.58l-1.46-2.77C125.66,122.39,123.2,117.68,117,113.9Z" fill="#231f20"></path><path d="M86.33,101.46c-.7,0,0,19.63.24,21,.3,1.73.94,3.63,2.53,4.36a5,5,0,0,0,2.07.35,15.05,15.05,0,0,0,11.52-6c2.71-3.48,3.49-7.37,4.06-11.62.09-.71.27-8.81,0-8.81Z" fill="#fff"></path><path d="M91.13,127.71a5.38,5.38,0,0,1-2.24-.4c-1.45-.66-2.37-2.21-2.81-4.72,0-.18-1.1-20.28-.18-21.42a.65.65,0,0,1,.41-.21h0l20.4-.63a.53.53,0,0,1,.4.17c.54.59.14,9.12.13,9.2-.52,4-1.28,8.16-4.15,11.85a15.44,15.44,0,0,1-11.92,6.16ZM86.67,102c-.42,2.39.12,19,.39,20.47.39,2.16,1.12,3.46,2.25,4a4.2,4.2,0,0,0,1.86.31,14.46,14.46,0,0,0,11.13-5.77c2.72-3.5,3.44-7.54,4-11.37.1-.75.2-6.72.08-8.23Zm-.32,0Zm0-.5h0Z" fill="#231f20"></path><path d="M114.06,85.76a19.48,19.48,0,0,0,.6-1.88c3.3-12.13-1.56-27.7-15.85-28.69-6.69-.46-12.69,3.45-16,9.15-4.09,7.13-3,16.25-2.2,24.11a2.55,2.55,0,0,0,.45,1.46c.81,1,2.4.33,3.46.31,1.53,0,3.1.23,4.64.31,2.64.13,5.29.22,7.94.18,3.82-.06,7.67.27,11.45-.33,1.62-.26,2.73-.27,3.81-1.57A10.61,10.61,0,0,0,114.06,85.76Z" fill="#fff"></path><path d="M102.84,91.25l-2.34,0c-1.12,0-2.23,0-3.35,0-2.31,0-4.85,0-8-.18-.59,0-1.19-.09-1.8-.14a26.64,26.64,0,0,0-2.81-.17,7.11,7.11,0,0,0-.86.1c-1,.14-2.21.32-3-.59a3,3,0,0,1-.57-1.73L80,87.42c-.75-7.68-1.6-16.38,2.38-23.33,3.58-6.25,9.88-9.84,16.43-9.4a17,17,0,0,1,13.07,7.24c4,5.7,5.32,14.37,3.22,22.08-.2.73-.4,1.36-.61,1.92h0a11,11,0,0,1-1.75,3.2,4.77,4.77,0,0,1-3.53,1.65l-.58.09A36.76,36.76,0,0,1,102.84,91.25Zm-4.68-1c.78,0,1.57,0,2.35,0a45.72,45.72,0,0,0,8-.35l.58-.09a3.82,3.82,0,0,0,2.91-1.3,9.76,9.76,0,0,0,1.58-2.9h0a19.15,19.15,0,0,0,.59-1.84c2-7.44.81-15.77-3.08-21.24a16,16,0,0,0-12.32-6.82c-6.17-.42-12.11,3-15.49,8.9-3.83,6.67-3,15.2-2.25,22.73l.11,1.08a2.07,2.07,0,0,0,.33,1.18c.42.49,1.26.37,2.07.25a9.53,9.53,0,0,1,1-.11,28.42,28.42,0,0,1,2.92.17c.58,0,1.17.11,1.75.14,3.11.16,5.62.22,7.92.18Z" fill="#231f20"></path><path d="M86.09,87.23c-.75-6-10.65-7.85-10.41-.77a10.51,10.51,0,0,0,2.42,6.73A6.18,6.18,0,0,0,84.73,95" fill="#fff"></path><path d="M82.83,95.84a7,7,0,0,1-5.09-2.32,10.92,10.92,0,0,1-2.56-7c-.12-3.5,2.06-4.92,4.14-5.08a6.88,6.88,0,0,1,7.26,5.77.49.49,0,0,1-.43.55.51.51,0,0,1-.56-.43,5.92,5.92,0,0,0-6.19-4.9c-2.13.17-3.3,1.65-3.22,4a10.08,10.08,0,0,0,2.29,6.41,5.64,5.64,0,0,0,6.07,1.67.5.5,0,1,1,.37.92A5.42,5.42,0,0,1,82.83,95.84Z" fill="#231f20"></path><path d="M107.65,87.23c.76-6,10.66-7.85,10.41-.77a10.51,10.51,0,0,1-2.42,6.73A6.17,6.17,0,0,1,109,95" fill="#fff"></path><path d="M110.91,95.84a5.46,5.46,0,0,1-2.08-.4.5.5,0,0,1-.28-.65.51.51,0,0,1,.66-.27,5.63,5.63,0,0,0,6.06-1.67,10,10,0,0,0,2.29-6.41c.08-2.4-1.09-3.88-3.21-4a5.92,5.92,0,0,0-6.2,4.9.5.5,0,0,1-.56.43.49.49,0,0,1-.43-.55,6.89,6.89,0,0,1,7.27-5.77c2.07.16,4.25,1.58,4.13,5.08a11,11,0,0,1-2.55,7A7.05,7.05,0,0,1,110.91,95.84Z" fill="#231f20"></path><path d="M86.83,104.07a16,16,0,0,0,5.71,5.37,22.4,22.4,0,0,0,13.53,3.29l.22-8.74A44,44,0,0,1,96,103.7a29.49,29.49,0,0,1-8.86-2Z" fill="#231f20"></path><path d="M104.18,113.34a23.85,23.85,0,0,1-11.9-3.47,16.28,16.28,0,0,1-5.89-5.55.52.52,0,0,1-.06-.3l.27-2.41a.5.5,0,0,1,.7-.4,29.23,29.23,0,0,0,8.71,2,43.05,43.05,0,0,0,10.23.29.53.53,0,0,1,.39.13.47.47,0,0,1,.16.38l-.22,8.74a.51.51,0,0,1-.44.49A17.64,17.64,0,0,1,104.18,113.34ZM87.34,104A15.41,15.41,0,0,0,92.8,109a22.16,22.16,0,0,0,12.78,3.27l.2-7.74a45.53,45.53,0,0,1-9.89-.34,32.32,32.32,0,0,1-8.37-1.81Z" fill="#231f20"></path><path d="M112.57,71l-.76,21.76a13.9,13.9,0,0,1-.37,2.76A13.75,13.75,0,0,1,97.6,106l-1.6-.06A13.74,13.74,0,0,1,82.73,91.72L83.49,70s3.4,4.47,13.13,4.38A37.54,37.54,0,0,0,112.57,71Z" fill="#fff"></path><path d="M98.07,106.5h-.49l-1.6-.06A14.26,14.26,0,0,1,82.23,91.7L83,69.94a.47.47,0,0,1,.34-.45.49.49,0,0,1,.55.17s3.35,4.18,12.46,4.18h.27a37.21,37.21,0,0,0,15.72-3.32.51.51,0,0,1,.74.46l-.76,21.77a14.77,14.77,0,0,1-.38,2.86A14.3,14.3,0,0,1,98.07,106.5ZM84,71.13l-.72,20.6A13.26,13.26,0,0,0,96,105.43l1.61.06h.45a13.17,13.17,0,0,0,13.24-12.79L112,71.77a39.41,39.41,0,0,1-15.42,3.07h-.28C89.23,74.84,85.49,72.46,84,71.13Z" fill="#231f20"></path><path d="M97.42,83.17s4.52,10,2.52,10.14S95.11,92,95.11,92" fill="#fff"></path><path d="M99.6,93.83a12.41,12.41,0,0,1-4.73-1.39.5.5,0,1,1,.47-.88S98.08,93,99.9,92.81c.47-.55-.86-4.88-2.93-9.44a.49.49,0,0,1,.25-.66.51.51,0,0,1,.66.25c.91,2,3.82,8.72,2.87,10.36a1,1,0,0,1-.76.49Z" fill="#231f20"></path><path d="M99.92,99.63a17.59,17.59,0,0,1-8.51-2.44.5.5,0,1,1,.48-.87c7,3.85,11.53,1.69,11.58,1.67a.5.5,0,1,1,.45.89A9.34,9.34,0,0,1,99.92,99.63Z" fill="#231f20"></path><ellipse cx="91.58" cy="81.66" rx="0.94" ry="2.13" fill="#231f20"></ellipse><ellipse cx="104.19" cy="81.66" rx="0.94" ry="2.13" fill="#231f20"></ellipse><path d="M115.65,117.7a.54.54,0,0,1-.36-.14c-5.41-5.46-9-4.37-9.06-4.35a.5.5,0,0,1-.63-.32.5.5,0,0,1,.31-.63c.16-.06,4.19-1.36,10.09,4.59a.5.5,0,0,1,0,.71A.47.47,0,0,1,115.65,117.7Z" fill="#231f20"></path><path d="M99.32,149.59s-2.59-2-2.59-4.5v-6.88h5.18v6.88C101.91,147.57,99.32,149.59,99.32,149.59Z" fill="#fff"></path><path d="M99.32,150.09A.5.5,0,0,1,99,150c-.11-.09-2.78-2.2-2.78-4.9v-6.88a.5.5,0,0,1,.5-.5h5.18a.5.5,0,0,1,.5.5v6.88c0,2.7-2.67,4.81-2.78,4.9A.5.5,0,0,1,99.32,150.09Zm-2.09-11.38v6.38c0,1.73,1.44,3.24,2.09,3.84.65-.6,2.09-2.12,2.09-3.84v-6.38Z" fill="#231f20"></path><path d="M88.74,195.07H77.9v-7.59l8-20.59H93.2v20.69h2.55v7.49H93.2v5.16H88.74Zm0-7.49V172.3h0L82.6,187.58Z" fill="#fff"></path><path d="M93.2,200.73H88.74a.5.5,0,0,1-.5-.5v-4.66H77.9a.5.5,0,0,1-.5-.5v-7.59a.39.39,0,0,1,0-.18l8-20.59a.48.48,0,0,1,.46-.32H93.2a.5.5,0,0,1,.5.5v20.19h2a.5.5,0,0,1,.5.5v7.49a.5.5,0,0,1-.5.5h-2v4.66A.5.5,0,0,1,93.2,200.73Zm-4-1H92.7v-4.66a.5.5,0,0,1,.5-.5h2v-6.49h-2a.5.5,0,0,1-.5-.5V167.39H86.27L78.4,187.57v7H88.74a.5.5,0,0,1,.5.5Zm-.5-11.65H82.6a.51.51,0,0,1-.42-.22.52.52,0,0,1-.05-.47l6.09-15.28a.5.5,0,0,1,.47-.31.55.55,0,0,1,.55.5v15.28A.51.51,0,0,1,88.74,188.08Zm-5.41-1h4.91V174.77Z" fill="#231f20"></path><path d="M347.13,257.43l-7.2-50-56,1.07a293.48,293.48,0,0,0-6.45,48.94Z" fill="#231f20"></path><path d="M347.13,257.93H277.44a.5.5,0,0,1-.5-.52,296.52,296.52,0,0,1,6.47-49,.51.51,0,0,1,.47-.39l56-1.07a.48.48,0,0,1,.51.42l7.2,50a.49.49,0,0,1-.12.4A.49.49,0,0,1,347.13,257.93Zm-69.17-1h68.6l-7.06-49L284.3,209A295.36,295.36,0,0,0,278,256.93Z" fill="#231f20"></path><path d="M298,107.06s-18.8,3.37-24,14-3.56,23,0,28.45,7.11,60.47,8.41,62.4,20.6,7.66,34.48,6.46c22.31-1.94,26.62-6.46,26.62-6.46l-1.62-51.09s12.93,10.67,19.4-1.62-25.86-38.23-29.42-41.9S298,107.06,298,107.06Z" fill="#3B6AE2"></path><path d="M315.15,182.9c-.22-3.12,1.31-5.61,3.71-6.5v-.07a7,7,0,0,1-3.13-5.22c-.32-4.47,3.07-6.48,7.74-5.45,4.21.93,7.09,3.89,7.36,7.63a4.1,4.1,0,0,1-1.8,4v.07a7.33,7.33,0,0,1,3.45,5.89c.28,4.05-2.68,7-7.25,7.33C320.09,190.92,315.5,187.83,315.15,182.9Zm13.13-.56c-.11-1.55-1.52-2.67-3.83-2.81s-3.92.9-3.8,2.59,1.74,2.83,4.18,2.82S328.39,184,328.28,182.34Zm-1.46-9.29c-.11-1.46-1.22-2.48-3-2.79s-3,.39-2.9,2,1.37,2.53,3.23,2.74S326.92,174.44,326.82,173.05Z" fill="#fff"></path><path d="M324.4,191.08a10.64,10.64,0,0,1-6.3-2,8.31,8.31,0,0,1-3.45-6.18h0a6.76,6.76,0,0,1,3.31-6.68,7.23,7.23,0,0,1-2.74-5.12,5.61,5.61,0,0,1,1.74-4.87c1.52-1.31,3.87-1.7,6.61-1.1,4.43,1,7.47,4.16,7.75,8.09a4.67,4.67,0,0,1-1.49,4,8,8,0,0,1,3.15,5.92,6.8,6.8,0,0,1-2,5.45,8.79,8.79,0,0,1-5.77,2.42C325,191.07,324.69,191.08,324.4,191.08Zm-8.75-8.21a7.34,7.34,0,0,0,3,5.44,9.74,9.74,0,0,0,6.5,1.75,7.84,7.84,0,0,0,5.13-2.13,5.83,5.83,0,0,0,1.66-4.68,6.86,6.86,0,0,0-3.2-5.48.5.5,0,0,1-.25-.4.59.59,0,0,1,.21-.52,3.59,3.59,0,0,0,1.58-3.52c-.25-3.48-3-6.3-7-7.18-2.42-.54-4.46-.23-5.74.88a4.66,4.66,0,0,0-1.4,4,6.5,6.5,0,0,0,2.94,4.85.53.53,0,0,1,.2.37.59.59,0,0,1-.32.58c-2.25.84-3.58,3.19-3.38,6Zm9.15,2.57c-2.72,0-4.5-1.26-4.65-3.28a2.64,2.64,0,0,1,.74-2.09,4.59,4.59,0,0,1,3.59-1c2.52.15,4.16,1.41,4.3,3.27h0a2.69,2.69,0,0,1-.66,2,4.42,4.42,0,0,1-3.29,1.11ZM324,180a3.32,3.32,0,0,0-2.39.75,1.61,1.61,0,0,0-.46,1.32c.11,1.47,1.47,2.35,3.65,2.35h0a3.48,3.48,0,0,0,2.55-.79,1.62,1.62,0,0,0,.4-1.28h0c-.1-1.32-1.38-2.22-3.36-2.34Zm.69-4.52a4.64,4.64,0,0,1-.63,0c-2.11-.24-3.55-1.5-3.67-3.21a2.33,2.33,0,0,1,.67-1.95,3.3,3.3,0,0,1,2.81-.53c2,.34,3.33,1.56,3.45,3.25h0a2.24,2.24,0,0,1-.62,1.81A2.83,2.83,0,0,1,324.69,175.5ZM323,170.69a1.82,1.82,0,0,0-1.21.35,1.33,1.33,0,0,0-.35,1.14c.08,1.23,1.15,2.1,2.79,2.29a2.34,2.34,0,0,0,1.82-.36,1.24,1.24,0,0,0,.32-1h0c-.09-1.22-1-2.07-2.62-2.34A5.14,5.14,0,0,0,323,170.69Z" fill="#231f20"></path><path d="M325.07,145.69s-5-2.23-5-5v-7.57H330v7.57C330,143.46,325.07,145.69,325.07,145.69Z" fill="#fff"></path><path d="M325.07,146.19a.54.54,0,0,1-.21-.05c-.21-.09-5.26-2.39-5.26-5.42v-7.57a.5.5,0,0,1,.5-.5H330a.5.5,0,0,1,.5.5v7.57c0,3-5,5.33-5.26,5.42A.46.46,0,0,1,325.07,146.19Zm-4.47-12.54v7.07c0,1.89,3,3.74,4.47,4.41,1.41-.67,4.46-2.52,4.46-4.41v-7.07Z" fill="#231f20"></path><path d="M298.05,116.27c-.82-4.68-.12-10-.69-14.38l17.73,2c.49,2.29,1.07,4.57,1.77,6.8,1,3.29,3.44,5.82,1.89,9.33a10.73,10.73,0,0,1-17.12,3.53A12.4,12.4,0,0,1,298.05,116.27Z" fill="#fff"></path><path d="M309,126.89a11.37,11.37,0,0,1-7.71-3,12.77,12.77,0,0,1-3.73-7.52h0a46.81,46.81,0,0,1-.45-8.06,49.25,49.25,0,0,0-.25-6.34.5.5,0,0,1,.14-.42.53.53,0,0,1,.41-.15l17.73,2a.51.51,0,0,1,.44.39c.51,2.37,1.1,4.64,1.75,6.76a20.69,20.69,0,0,0,1.07,2.61c1,2.14,2,4.35.81,7.07a11.4,11.4,0,0,1-8,6.47A10.81,10.81,0,0,1,309,126.89Zm-10.46-10.7a11.67,11.67,0,0,0,3.43,7,10.22,10.22,0,0,0,16.32-3.36c1-2.31.18-4.14-.8-6.25a22.24,22.24,0,0,1-1.11-2.73c-.63-2-1.21-4.23-1.71-6.49l-16.74-1.86a57.85,57.85,0,0,1,.18,5.84,46.64,46.64,0,0,0,.43,7.89Z" fill="#231f20"></path><path d="M326.77,87.85c1.34-3.13,1.42-6.59,1.44-10.16,0-7.5,4-14.58,6.17-21.75l-7.38,2,3.35-6.45L316.77,56a11.5,11.5,0,0,0,3.64-6.8c-3.08,3.1-7.8,3.69-12.11,4.46-3,.52-6.14,1.32-8.56,3.21-1.66,1.29-4.49,3.9-5.25,5.79-.46,1.14-.9,2.43-2,3a14.28,14.28,0,0,1-1.58.6,4.69,4.69,0,0,0-2.44,3,13.2,13.2,0,0,0-.44,3.91c0,2.82.1,5.64.13,8.46,0,1.89-.76,4.63-.06,6.39,1.13,2.86,5.16,3.67,7.75,4.47,4.18,1.29,8.64.61,12.93.55,4-.07,8.06.28,12.05-.36,1.7-.27,2.87-.27,4-1.65A13.08,13.08,0,0,0,326.77,87.85Z" fill="#fff"></path><path d="M302,93.73a21.17,21.17,0,0,1-6.27-.8l-1-.3c-2.67-.77-6-1.73-7.07-4.46a9.78,9.78,0,0,1-.15-4.5,18.5,18.5,0,0,0,.17-2.08c0-1.09,0-2.19-.07-3.28,0-1.69-.08-3.45-.06-5.18a13.39,13.39,0,0,1,.46-4.06,5.19,5.19,0,0,1,2.72-3.26c.23-.1.46-.17.7-.25a3.87,3.87,0,0,0,.83-.32,4.73,4.73,0,0,0,1.65-2.53l.11-.26c.82-2,3.78-4.73,5.4-6,2.55-2,5.87-2.79,8.79-3.3l1-.18c4-.69,8.09-1.4,10.82-4.15a.49.49,0,0,1,.57-.09.5.5,0,0,1,.28.52,12,12,0,0,1-2.44,5.64L330.2,51a.49.49,0,0,1,.54.15.5.5,0,0,1,.06.55L328,57.16l6.28-1.7a.5.5,0,0,1,.49.13.53.53,0,0,1,.12.5c-.68,2.27-1.56,4.57-2.4,6.79-1.83,4.8-3.72,9.76-3.75,14.82,0,3.82-.15,7.23-1.48,10.35h0a13.41,13.41,0,0,1-2,3.26A5,5,0,0,1,321.54,93l-.6.1a49.71,49.71,0,0,1-8.6.37c-1.18,0-2.35,0-3.53,0-1,0-2,.06-3,.11C304.53,93.67,303.27,93.73,302,93.73ZM319.6,50.54c-2.85,2.14-6.57,2.79-10.19,3.41l-1,.18c-2.79.49-6,1.25-8.35,3.11-2,1.56-4.44,4-5.09,5.59l-.1.25a5.46,5.46,0,0,1-2.09,3,4.59,4.59,0,0,1-1,.4c-.2.07-.41.13-.61.22A4.17,4.17,0,0,0,289,69.38a12.46,12.46,0,0,0-.42,3.76c0,1.71,0,3.46.06,5.15,0,1.09.05,2.19.07,3.29a20.31,20.31,0,0,1-.17,2.21,9.2,9.2,0,0,0,.07,4c.91,2.28,4,3.16,6.43,3.87l1,.3c3.11,1,6.46.8,9.7.64,1,0,2-.1,3.07-.11,1.18,0,2.37,0,3.55,0a49.58,49.58,0,0,0,8.43-.36l.61-.1c1.34-.19,2.22-.32,3.08-1.37a12,12,0,0,0,1.84-3h0c1.26-2.94,1.38-6.12,1.4-10,0-5.23,2-10.28,3.81-15.17.74-1.92,1.49-3.9,2.11-5.86l-6.5,1.76a.52.52,0,0,1-.52-.17.51.51,0,0,1-.05-.54l2.78-5.36-12.42,4.1a.5.5,0,0,1-.59-.22.49.49,0,0,1,.1-.62A11.11,11.11,0,0,0,319.6,50.54Z" fill="#231f20"></path><path d="M319.22,86.85c.79-6.34,11.21-8.26,10.95-.81a11,11,0,0,1-2.55,7.09,6.49,6.49,0,0,1-7,1.88" fill="#fff"></path><path d="M322.65,95.89a5.78,5.78,0,0,1-2.18-.41.5.5,0,0,1-.28-.65.49.49,0,0,1,.65-.28,5.94,5.94,0,0,0,6.41-1.76A10.49,10.49,0,0,0,329.67,86c.13-3.62-2.34-4.21-3.4-4.29a6.25,6.25,0,0,0-6.55,5.17.52.52,0,0,1-.56.44.51.51,0,0,1-.44-.56,7.22,7.22,0,0,1,7.63-6.05c2.17.18,4.45,1.66,4.32,5.32a11.51,11.51,0,0,1-2.68,7.4A7.39,7.39,0,0,1,322.65,95.89Z" fill="#231f20"></path><path d="M298,107.06a16.83,16.83,0,0,0,6,5.65c4,2.39,10,5.13,14.93,4.55L318.44,107a46.52,46.52,0,0,1-10.89-.3,31.26,31.26,0,0,1-9.33-2.15Z" fill="#231f20"></path><path d="M317.48,117.84c-5.13,0-10.74-2.88-13.78-4.7a17.18,17.18,0,0,1-6.19-5.83.54.54,0,0,1-.06-.31l.28-2.53a.51.51,0,0,1,.25-.38.48.48,0,0,1,.45,0,31,31,0,0,0,9.18,2.1,45.59,45.59,0,0,0,10.77.31.46.46,0,0,1,.38.11.5.5,0,0,1,.18.36l.45,10.29a.49.49,0,0,1-.44.51A11.84,11.84,0,0,1,317.48,117.84Zm-19-10.89a16.32,16.32,0,0,0,5.76,5.33c3.13,1.88,9,4.89,14.15,4.53l-.41-9.29a47.76,47.76,0,0,1-10.47-.35,34.3,34.3,0,0,1-8.84-1.92Z" fill="#231f20"></path><path d="M324.17,73.23a2.92,2.92,0,0,1,.77,1.82c.37,2.51-.19,5.51-.28,8-.14,4-.41,8-.41,12a13.79,13.79,0,0,1-.4,2.9,14.47,14.47,0,0,1-14.56,11.06L307.6,109a14.47,14.47,0,0,1-13.52-10.86C293,94,291.45,89.32,291.93,85c.11-1,.7-2.25,1.67-2a1.85,1.85,0,0,1,.93.69l3.17,3.57a1.79,1.79,0,0,0,.7.55c.92.31,1.56-.94,1.68-1.91.27-2.08.21-4.2.52-6.27a9.5,9.5,0,0,1,2.54-5.64,4.92,4.92,0,0,1,5.78-.92c1.87,1.15,2.71,3.86,4.88,4.29,1.39.27,2.74-.56,3.92-1.35C319.56,74.69,322.67,71.85,324.17,73.23Z" fill="#fff"></path><path d="M309.78,109.59h-.51l-1.69-.07a15,15,0,0,1-14-11.24c-.16-.64-.34-1.3-.52-2-1-3.75-2.06-7.63-1.64-11.41a3.3,3.3,0,0,1,1.1-2.23,1.46,1.46,0,0,1,1.18-.25,2.36,2.36,0,0,1,1.2.85l3.17,3.56a1.24,1.24,0,0,0,.48.41.33.33,0,0,0,.32,0,2.18,2.18,0,0,0,.7-1.45c.13-1,.18-2,.23-2.93s.13-2.24.29-3.36a10,10,0,0,1,2.69-5.92,5.42,5.42,0,0,1,6.39-1,8.81,8.81,0,0,1,2.12,2.1,4.94,4.94,0,0,0,2.59,2.13c1.18.23,2.4-.5,3.56-1.27.33-.22.7-.5,1.09-.79,2-1.45,4.44-3.27,6-1.86h0a3.47,3.47,0,0,1,.93,2.12,24.08,24.08,0,0,1-.09,5.55c-.08.91-.16,1.76-.19,2.58,0,1.34-.11,2.68-.17,4-.12,2.62-.24,5.33-.24,8a15.35,15.35,0,0,1-.41,3A15,15,0,0,1,309.78,109.59Zm-16.39-26.2a.49.49,0,0,0-.28.09,2.38,2.38,0,0,0-.68,1.53c-.4,3.59.62,7.38,1.61,11,.18.67.35,1.33.52,2a14,14,0,0,0,13.05,10.49l1.7.07A13.94,13.94,0,0,0,323.75,95.1c0-2.66.12-5.38.24-8,.07-1.34.13-2.68.17-4,0-.84.11-1.71.19-2.63a23.2,23.2,0,0,0,.1-5.31,2.61,2.61,0,0,0-.61-1.53c-.93-.85-3.11.75-4.71,1.93-.4.3-.79.58-1.13.81-1.32.89-2.75,1.73-4.3,1.42s-2.32-1.4-3.18-2.48a7.91,7.91,0,0,0-1.86-1.88c-1.68-1-3.92-.33-5.18.86a9,9,0,0,0-2.39,5.35c-.16,1.07-.22,2.19-.28,3.27s-.11,2-.23,3a3.17,3.17,0,0,1-1.17,2.17,1.32,1.32,0,0,1-1.17.14,2.21,2.21,0,0,1-.91-.69l-3.17-3.57a1.49,1.49,0,0,0-.67-.53Z" fill="#231f20"></path><path d="M313.55,85.4s4.75,10.48,2.65,10.67-5.09-1.37-5.09-1.37" fill="#fff"></path><path d="M315.83,96.59a13,13,0,0,1-4.95-1.45.5.5,0,0,1-.21-.68.49.49,0,0,1,.67-.21s2.89,1.51,4.81,1.33c.53-.54-.89-5.21-3.06-10a.5.5,0,0,1,.91-.41c1,2.12,4,9.17,3,10.88a1,1,0,0,1-.78.5Z" fill="#231f20"></path><ellipse cx="307.27" cy="84.16" rx="0.99" ry="2.24" fill="#231f20"></ellipse><ellipse cx="318.21" cy="84.16" rx="0.99" ry="2.24" fill="#231f20"></ellipse><path d="M297.17,86.85c-.79-6.34-11.22-8.26-11-.81a11,11,0,0,0,2.55,7.09,6.5,6.5,0,0,0,7,1.88" fill="#fff"></path><path d="M293.74,95.89a7.37,7.37,0,0,1-5.34-2.43,11.52,11.52,0,0,1-2.69-7.4c-.12-3.66,2.16-5.14,4.33-5.32a7.21,7.21,0,0,1,7.62,6.05.5.5,0,0,1-.43.56.51.51,0,0,1-.56-.44,6.26,6.26,0,0,0-6.55-5.17c-1.07.08-3.53.67-3.41,4.29a10.61,10.61,0,0,0,2.42,6.76,6,6,0,0,0,6.41,1.76.5.5,0,1,1,.38.93A5.78,5.78,0,0,1,293.74,95.89Z" fill="#231f20"></path><path d="M328.08,158.44c-4.38,2.15,17.82,7.59,24.25,7.27s14.27-3.88,13.76-7.22-8-15.73-12.23-19.07c0,0-13.16,2.58-14.69,4.85a20,20,0,0,0-2.25,6.25Z" fill="#fff"></path><path d="M351.82,166.22c-5.93,0-24-3.92-24.78-6.89-.08-.3-.08-.87.75-1.31l8.67-7.76a19.84,19.84,0,0,1,2.29-6.27c1.6-2.37,13.64-4.8,15-5.06a.47.47,0,0,1,.41.1c4.23,3.37,11.87,15.77,12.42,19.39a3.24,3.24,0,0,1-.86,2.56c-2.14,2.62-8.14,5-13.38,5.23Zm1.9-26.27c-5,1-13.12,3.09-14.14,4.6a19.36,19.36,0,0,0-2.16,6,.56.56,0,0,1-.16.29l-8.85,7.92a.26.26,0,0,1-.11.07c-.25.13-.29.21-.29.21.19,1.72,17.56,6.43,24.29,6.12,4.91-.25,10.7-2.47,12.65-4.86a2.31,2.31,0,0,0,.65-1.78C365.13,155.51,358,143.56,353.72,140Zm-25.64,18.49h0Z" fill="#231f20"></path><path d="M307.61,142.11s-11.95,7.44-14.34,16.33c0,0,13.87,14.87,19.23,14.87s28.33-22.39,35-25.7c0,0-22.17-1.84-31.41,1.72Z" fill="#fff"></path><path d="M312.5,173.81c-5.51,0-19-14.42-19.6-15a.51.51,0,0,1-.11-.47c2.41-9,14.06-16.32,14.55-16.62a.49.49,0,0,1,.59,0l8.29,7c9.39-3.42,30.45-1.73,31.35-1.65a.49.49,0,0,1,.45.4.5.5,0,0,1-.27.54c-2.73,1.36-8.35,6-14.29,11C324.78,166.31,315.8,173.81,312.5,173.81ZM293.83,158.3c1.68,1.78,13.92,14.51,18.67,14.51,2.94,0,12.17-7.71,20.32-14.52,5.1-4.26,10-8.32,13.05-10.3-5.27-.33-22-1.11-29.57,1.81a.52.52,0,0,1-.51-.09l-8.22-7C305.72,144,296.08,150.6,293.83,158.3Z" fill="#231f20"></path><path d="M347.53,148.11a.51.51,0,0,1-.42-.23.5.5,0,0,1,.15-.69,12,12,0,0,1,4.05-1.58.49.49,0,0,1,.59.39.51.51,0,0,1-.4.59,11.22,11.22,0,0,0-3.69,1.43A.49.49,0,0,1,347.53,148.11Z" fill="#231f20"></path><path d="M313.67,148a3.38,3.38,0,0,0,.16,4.38,4.54,4.54,0,0,0,3.21.83c2.17-.08,5-.5,6.8-1.85,1.41-1.06,2-3.33.74-4.74C322.13,144,315.6,145.42,313.67,148Z" fill="#fff"></path><path d="M316.66,153.75a4.66,4.66,0,0,1-3.16-1,3.86,3.86,0,0,1-.23-5c1.19-1.62,4-2.86,6.75-3a6.12,6.12,0,0,1,4.93,1.58,3.26,3.26,0,0,1,.82,2.54,4.28,4.28,0,0,1-1.63,2.94c-2.06,1.55-5.32,1.89-7.08,2Zm3.91-8h-.49c-2.47.13-5,1.23-6,2.6h0a2.89,2.89,0,0,0,.09,3.7,3.93,3.93,0,0,0,2.87.71c1.64-.06,4.67-.36,6.51-1.75a3.21,3.21,0,0,0,1.23-2.23,2.23,2.23,0,0,0-.55-1.77A4.85,4.85,0,0,0,320.57,145.72Zm-6.9,2.31h0Z" fill="#231f20"></path><path d="M311.1,100.62a4.62,4.62,0,0,1-4.22-2,.53.53,0,0,1,.13-.71.46.46,0,0,1,.66.09l.06.09c1,1.57,3.27,1.94,6.44,1a.49.49,0,0,1,.62.34.51.51,0,0,1-.34.62A12.26,12.26,0,0,1,311.1,100.62Z" fill="#231f20"></path><path d="M288.1,215a.4.4,0,0,1-.15,0,.5.5,0,0,1-.33-.62.54.54,0,0,1,.11-.18c.53-1.21,5.55-19.09,5-22.55-.52-3.66-6.21-31.31-6.27-31.59a.51.51,0,0,1,.39-.59.49.49,0,0,1,.59.39c.24,1.14,5.75,27.95,6.28,31.64.51,3.5-4.54,22.74-5.32,23.4A.53.53,0,0,1,288.1,215Z" fill="#231f20"></path><path d="M336.75,122.3a.55.55,0,0,1-.34-.13,18.08,18.08,0,0,0-7.16-3.6c-4.41-1.06-9.59-2.38-9.59-2.38l.24-1s5.18,1.32,9.59,2.37a19,19,0,0,1,7.59,3.83.5.5,0,0,1,0,.71A.51.51,0,0,1,336.75,122.3Z" fill="#231f20"></path><path d="M293.31,121.27a.42.42,0,0,1-.22,0,.5.5,0,0,1-.23-.67,10.51,10.51,0,0,1,5-4.75.52.52,0,0,1,.65.3.5.5,0,0,1-.3.64,9.47,9.47,0,0,0-4.46,4.26A.51.51,0,0,1,293.31,121.27Z" fill="#231f20"></path><path d="M311.11,142.11l-19.42-23.28c-3.81-4.56-8.53-6.49-13.42-3.12s-13,14.76-5.74,28.82c4.14,8,22.14,23.44,22.14,23.44L313,144.05Z" fill="#231f20"></path><path d="M294.67,168.47a.47.47,0,0,1-.32-.12c-.74-.63-18.13-15.58-22.27-23.59-7.91-15.28,1.86-26.68,5.91-29.46,4.66-3.22,9.67-2.08,14.08,3.21l19.41,23.27,1.83,1.93a.49.49,0,0,1,0,.64l-18.27,23.93a.49.49,0,0,1-.35.19Zm-11.37-54a8.31,8.31,0,0,0-4.75,1.62c-4.85,3.34-12.59,14.63-5.58,28.19,3.71,7.17,18.95,20.61,21.63,22.94l17.69-23.17-1.54-1.63,0,0L291.3,119.15C289.34,116.8,286.58,114.5,283.3,114.5Z" fill="#231f20"></path><path d="M337.67,146.1s-1.4-11.41-4.85-19.72-5.31-10.67-5.31-10.67a40.74,40.74,0,0,1,15.33,10.67c6.33,7.44,11,13,11,13Z" fill="#231f20"></path><path d="M337.67,146.6a.52.52,0,0,1-.25-.07.51.51,0,0,1-.25-.37c0-.12-1.43-11.44-4.81-19.58S327.13,116,327.12,116a.5.5,0,0,1,0-.6.49.49,0,0,1,.57-.18,41.55,41.55,0,0,1,15.54,10.82c6.26,7.35,11,13,11,13a.51.51,0,0,1-.19.79l-16.19,6.68A.65.65,0,0,1,337.67,146.6Zm-8.87-29.82a80.08,80.08,0,0,1,4.48,9.41c3,7.14,4.44,16.65,4.8,19.2L353,139.21c-1.3-1.55-5.41-6.44-10.57-12.5A40.3,40.3,0,0,0,328.8,116.78Z" fill="#231f20"></path><path d="M283.26,256.45a.51.51,0,0,1-.5-.48c-.58-13.78,3.7-37.25,3.74-37.49a.51.51,0,0,1,.58-.4.5.5,0,0,1,.4.58c0,.24-4.29,23.6-3.72,37.27a.49.49,0,0,1-.47.52Z" fill="#fff"></path><path d="M319.12,257.93h-.05a.5.5,0,0,1-.45-.55c0-.09.86-8.61,1.76-16.35a.52.52,0,0,1,.56-.44.5.5,0,0,1,.44.55c-.9,7.73-1.76,16.25-1.77,16.34A.49.49,0,0,1,319.12,257.93Z" fill="#fff"></path><path d="M173,188.22s-5,54.61-6.56,67.93l80.7,1.28s-3.13-58.27-7.74-70.56S173,188.22,173,188.22Z" fill="#231f20"></path><path d="M247.13,257.93h0l-80.7-1.28a.52.52,0,0,1-.37-.17.51.51,0,0,1-.12-.39c1.52-13.16,6.51-67.37,6.56-67.91a.49.49,0,0,1,.39-.44c2.54-.57,62.27-13.61,67-1.05,4.58,12.23,7.64,68.33,7.77,70.71a.57.57,0,0,1-.14.38A.55.55,0,0,1,247.13,257.93ZM167,255.66l79.62,1.26c-.33-5.9-3.38-58.42-7.68-69.88-4.23-11.28-60.42.51-65.46,1.6C173,193.37,168.5,242.21,167,255.66Z" fill="#231f20"></path><path d="M195.48,93.72s-24,4.75-29,11.79c0,0,2.82,79.5,2.82,99.15l74.23-1.76s1.23-93.32-1.26-97.39C236.43,96.06,195.48,93.72,195.48,93.72Z" fill="#3B6AE2"></path><path d="M202,142.42l-13.41,6.85V138.74l14.2-7.22h9.79v41.13H202Z" fill="#fff"></path><path d="M212.55,173.15H202a.51.51,0,0,1-.5-.5V143.23l-12.67,6.49a.5.5,0,0,1-.49,0,.5.5,0,0,1-.24-.43V138.74a.51.51,0,0,1,.27-.44l14.2-7.22a.46.46,0,0,1,.23-.06h9.79a.5.5,0,0,1,.5.5v41.13A.5.5,0,0,1,212.55,173.15Zm-10.09-1h9.59V132h-9.17l-13.82,7v9.41L201.74,142a.49.49,0,0,1,.72.45Z" fill="#231f20"></path><path d="M195.76,83.24,194,100s4.55,6.75,12,6.84,10.47-4.4,10.47-4.4l-.72-21.9Z" fill="#fff"></path><path d="M206.19,107.38h-.25c-7.58-.1-12.17-6.79-12.36-7.07a.44.44,0,0,1-.08-.33l1.76-16.79a.49.49,0,0,1,.43-.44l19.95-2.68a.47.47,0,0,1,.39.12.49.49,0,0,1,.17.36l.72,21.91a.47.47,0,0,1-.08.3C216.71,103,213.6,107.38,206.19,107.38Zm-11.68-7.49c.71,1,5,6.4,11.45,6.49h.23c6.21,0,9.18-3.37,9.73-4.06l-.7-21.18-19,2.55Z" fill="#231f20"></path><path d="M226.42,66.56a4.3,4.3,0,0,0-.07-.88,2.16,2.16,0,0,1,0-1.33c.24-.46.84-.61,1.22-1,.84-.78.43-2.16,0-3.21a1.27,1.27,0,0,1-.14-.76,1.41,1.41,0,0,1,.54-.72,7.47,7.47,0,0,0,1.2-9.29,4.23,4.23,0,0,0-.46-5.71A2.15,2.15,0,0,1,228,43a1.72,1.72,0,0,1-.09-.68A6.81,6.81,0,0,0,223.1,36a7.45,7.45,0,0,0-3.66-4.3A22,22,0,0,0,214,29.8c.41-1.28-1-2.42-2.32-2.73A7.55,7.55,0,0,0,204.77,29a2.07,2.07,0,0,0-1.55-1.83,6.13,6.13,0,0,0-2.56-.06c-2.93.35-6,.73-8.49,2.25a5.34,5.34,0,0,0-2,2,2.75,2.75,0,0,0,0,2.72,7.66,7.66,0,0,0-5.18,5.63,11.76,11.76,0,0,0,1.07,7.8,6.62,6.62,0,0,0-1.37,8.9c-.9-.27-1.71.87-1.54,1.8a5.07,5.07,0,0,0,1.57,2.33A3.22,3.22,0,0,1,185.76,63a8.16,8.16,0,0,1-.42,1.17A3.17,3.17,0,0,0,187.07,68c-1,.36-1,1.94-.17,2.61,1.47,1.23,4.45.62,6.19.6s3.27.24,4.88.32c2.79.15,5.58.24,8.37.19,3.54,0,7.11.22,10.64-.16,2.57-.28,5.59.68,7.73-1.2A5.17,5.17,0,0,0,226.42,66.56Z" fill="#fff"></path><path d="M212.36,72.26q-1.26,0-2.49,0c-1.18,0-2.35,0-3.52,0-2.45,0-5.12,0-8.41-.19-.62,0-1.25-.09-1.88-.15a27,27,0,0,0-3-.17c-.37,0-.81,0-1.28.07-1.75.13-3.93.3-5.23-.78a2.3,2.3,0,0,1-.74-2.12,1.79,1.79,0,0,1,.34-.81,3.7,3.7,0,0,1-1.32-4l.18-.45a2.56,2.56,0,0,0,.22-.64,2.65,2.65,0,0,0-1-2.09l-.2-.21a5,5,0,0,1-1.49-2.37,2.24,2.24,0,0,1,.7-2,1.57,1.57,0,0,1,.48-.31,7.17,7.17,0,0,1,1.6-8.63,12.05,12.05,0,0,1-.93-7.77,8.21,8.21,0,0,1,5-5.81,3.39,3.39,0,0,1,.28-2.66,5.75,5.75,0,0,1,2.22-2.15c2.67-1.6,5.87-2,8.69-2.32a6.67,6.67,0,0,1,2.77.08,2.89,2.89,0,0,1,1.69,1.39,8.1,8.1,0,0,1,6.74-1.49,4,4,0,0,1,2.49,1.74,2,2,0,0,1,.28,1.11,20.44,20.44,0,0,1,5.12,1.86,7.93,7.93,0,0,1,3.81,4.33,7.37,7.37,0,0,1,4.94,6.64,1.51,1.51,0,0,0,.05.5,1.22,1.22,0,0,0,.4.43l.14.12a4.71,4.71,0,0,1,.73,6.12,8,8,0,0,1-1.46,9.63c-.2.18-.37.33-.39.45A1,1,0,0,0,228,60c.47,1.13,1,2.76-.12,3.77a3.5,3.5,0,0,1-.59.41,1.4,1.4,0,0,0-.53.42,1.47,1.47,0,0,0,0,.83l0,.18a4.54,4.54,0,0,1,.08,1A5.67,5.67,0,0,1,225,70.73c-1.64,1.44-3.67,1.36-5.65,1.29A18.27,18.27,0,0,0,217,72,43.24,43.24,0,0,1,212.36,72.26Zm-5-1.05,2.5,0a57.29,57.29,0,0,0,7.05-.18,17.25,17.25,0,0,1,2.49,0c1.86.07,3.62.13,5-1a4.66,4.66,0,0,0,1.54-3.42h0a3.51,3.51,0,0,0-.06-.79l0-.16a2.21,2.21,0,0,1,.08-1.47,2,2,0,0,1,.9-.83,1.94,1.94,0,0,0,.42-.29c.48-.44.44-1.29-.13-2.65a1.5,1.5,0,0,1,.49-2,7,7,0,0,0,1.15-8.68.51.51,0,0,1,0-.6,3.72,3.72,0,0,0-.39-5l-.13-.1a2,2,0,0,1-.69-.82,2.3,2.3,0,0,1-.12-.79A6.35,6.35,0,0,0,223,36.5a.51.51,0,0,1-.35-.35,7,7,0,0,0-3.41-4,21.3,21.3,0,0,0-5.32-1.87.54.54,0,0,1-.32-.25.53.53,0,0,1,0-.39,1,1,0,0,0-.1-.85,3.09,3.09,0,0,0-1.86-1.25,7,7,0,0,0-6.44,1.79.47.47,0,0,1-.54.11.5.5,0,0,1-.31-.46,1.59,1.59,0,0,0-1.2-1.36,5.63,5.63,0,0,0-2.35,0c-2.72.32-5.81.69-8.3,2.18a4.8,4.8,0,0,0-1.85,1.77,2.23,2.23,0,0,0,0,2.22.49.49,0,0,1-.29.75,7.08,7.08,0,0,0-4.82,5.26,11.25,11.25,0,0,0,1,7.46.5.5,0,0,1-.16.62,6.11,6.11,0,0,0-1.25,8.2.51.51,0,0,1,0,.59.49.49,0,0,1-.55.19A.54.54,0,0,0,184,57a1.24,1.24,0,0,0-.38,1.08,4,4,0,0,0,1.23,1.86l.2.22a3.62,3.62,0,0,1,1.24,2.93A3.87,3.87,0,0,1,186,64c-.05.13-.11.26-.15.39a2.67,2.67,0,0,0,1.45,3.19.5.5,0,0,1,.31.47.48.48,0,0,1-.33.46.71.71,0,0,0-.42.58,1.34,1.34,0,0,0,.4,1.18c1,.82,2.94.67,4.51.56.5,0,1-.07,1.35-.08a28.43,28.43,0,0,1,3.07.18c.62.05,1.24.11,1.85.14,3.26.17,5.9.23,8.33.19Z" fill="#231f20"></path><path d="M194.7,68.05c-.79-6.35-11.22-8.27-11-.81a11,11,0,0,0,2.55,7.08,6.51,6.51,0,0,0,7,1.89" fill="#fff"></path><path d="M191.27,77.09a7.37,7.37,0,0,1-5.34-2.43,11.52,11.52,0,0,1-2.69-7.4c-.12-3.66,2.16-5.15,4.33-5.32a7.22,7.22,0,0,1,7.63,6,.5.5,0,0,1-.44.56.51.51,0,0,1-.56-.43,6.25,6.25,0,0,0-6.55-5.18c-1.07.09-3.53.68-3.41,4.29A10.57,10.57,0,0,0,186.66,74a6,6,0,0,0,6.42,1.77.49.49,0,0,1,.65.27.5.5,0,0,1-.28.65A5.79,5.79,0,0,1,191.27,77.09Z" fill="#231f20"></path><path d="M217.4,68.05c.79-6.35,11.22-8.27,10.95-.81a10.93,10.93,0,0,1-2.54,7.08,6.51,6.51,0,0,1-7,1.89" fill="#fff"></path><path d="M220.83,77.09a5.79,5.79,0,0,1-2.18-.42.5.5,0,0,1-.28-.65.49.49,0,0,1,.65-.27A6,6,0,0,0,225.44,74a10.57,10.57,0,0,0,2.42-6.76c.12-3.61-2.35-4.2-3.41-4.29a6.26,6.26,0,0,0-6.55,5.18.51.51,0,0,1-.56.43.5.5,0,0,1-.44-.56,7.22,7.22,0,0,1,7.63-6c2.17.17,4.45,1.66,4.33,5.32a11.58,11.58,0,0,1-2.69,7.4A7.37,7.37,0,0,1,220.83,77.09Z" fill="#231f20"></path><path d="M195.48,85.78a16.83,16.83,0,0,0,6,5.65c4,2.39,9.78,5.81,14.74,5.22l-.26-11a46.52,46.52,0,0,1-10.89-.3,31.19,31.19,0,0,1-9.32-2.15Z" fill="#231f20"></path><path d="M215.1,97.22c-4.94,0-10.46-3.32-13.87-5.36A17.18,17.18,0,0,1,195,86a.54.54,0,0,1-.06-.31l.28-2.53a.51.51,0,0,1,.25-.38.5.5,0,0,1,.46,0,30.87,30.87,0,0,0,9.17,2.1,45.66,45.66,0,0,0,10.78.31.49.49,0,0,1,.38.12.53.53,0,0,1,.17.36l.26,11a.49.49,0,0,1-.44.51A9.39,9.39,0,0,1,215.1,97.22ZM196,85.67A16.32,16.32,0,0,0,201.75,91c3.46,2.08,9.17,5.49,14,5.2l-.24-10A46.53,46.53,0,0,1,205,85.88,33.87,33.87,0,0,1,196.18,84Z" fill="#231f20"></path><path d="M218.11,52.11A6.21,6.21,0,0,0,218,55a2.14,2.14,0,0,0,2.15,1.66c-2.2.32,1.85,2.81,1.72,2.64.89,1.18.31,3.52.26,4.9l-.33,9.6a14.43,14.43,0,0,1-15,14l-1.69-.07a14.46,14.46,0,0,1-13.52-10.87,14.15,14.15,0,0,1-.44-4.09c.17-5-1-12.53,1.57-16.92a2.19,2.19,0,0,0,2.45-.69A4.09,4.09,0,0,0,196,52.6a4.3,4.3,0,0,0,5.6-1.52,4.35,4.35,0,0,0,3.79,1.51,13.06,13.06,0,0,0,4.07-1.2,5,5,0,0,0,4.1,2.15A8.34,8.34,0,0,0,218.11,52.11Z" fill="#fff"></path><path d="M207.31,88.31h-.51l-1.69-.07a14.93,14.93,0,0,1-14.44-15.48c0-1.27,0-2.71,0-4.24-.15-4.47-.31-9.54,1.69-12.91a.49.49,0,0,1,.63-.2,1.7,1.7,0,0,0,1.87-.57,3.66,3.66,0,0,0,.71-2.24.48.48,0,0,1,.25-.42.5.5,0,0,1,.49,0,3.81,3.81,0,0,0,4.93-1.33.48.48,0,0,1,.4-.25.46.46,0,0,1,.43.2,3.92,3.92,0,0,0,3.36,1.31,12.75,12.75,0,0,0,3.91-1.16.48.48,0,0,1,.61.19A4.43,4.43,0,0,0,213.59,53a7.74,7.74,0,0,0,4.26-1.35.5.5,0,0,1,.55,0,.51.51,0,0,1,.2.51,5.89,5.89,0,0,0-.14,2.7,1.7,1.7,0,0,0,1.6,1.3h0a.49.49,0,0,1,.56.42.51.51,0,0,1-.42.57h0l-.2,0a7.22,7.22,0,0,0,2,1.61.48.48,0,0,1,.29.19c.8,1.06.61,2.76.46,4.12,0,.4-.09.77-.1,1.09l-.33,9.6a14.63,14.63,0,0,1-.41,3A15,15,0,0,1,207.31,88.31ZM193,56.45c-1.65,3.13-1.5,7.85-1.36,12,0,1.54.09,3,0,4.31a13.69,13.69,0,0,0,.42,3.95,14,14,0,0,0,13,10.49l1.7.07A14,14,0,0,0,220.9,76.63a14.17,14.17,0,0,0,.38-2.81l.33-9.6c0-.34.06-.74.11-1.17.12-1.14.28-2.54-.2-3.31-.53-.3-2.68-1.6-2.54-2.69v0a3,3,0,0,1-1.49-1.82,5,5,0,0,1-.07-2.1,8.16,8.16,0,0,1-3.86,1,5.52,5.52,0,0,1-4.27-2,12,12,0,0,1-3.85,1.08,5.07,5.07,0,0,1-3.78-1.2,4.86,4.86,0,0,1-5.21,1.46,4.2,4.2,0,0,1-.88,2.14A2.77,2.77,0,0,1,193,56.45Z" fill="#231f20"></path><path d="M206.63,63.77s4.76,10.49,2.65,10.68-5.09-1.38-5.09-1.38" fill="#fff"></path><path d="M208.92,75a13.08,13.08,0,0,1-5-1.45.5.5,0,0,1,.46-.89s2.87,1.5,4.82,1.32c.53-.54-.9-5.2-3.06-10a.49.49,0,0,1,.24-.66.51.51,0,0,1,.67.25c1,2.11,4,9.16,3,10.88a1,1,0,0,1-.78.5Z" fill="#231f20"></path><path d="M209.26,81.08a18.64,18.64,0,0,1-8.95-2.56.5.5,0,0,1,.49-.88c7.39,4.07,12.16,1.78,12.2,1.76a.5.5,0,0,1,.67.22.49.49,0,0,1-.22.67A9.75,9.75,0,0,1,209.26,81.08Z" fill="#231f20"></path><ellipse cx="200.48" cy="62.18" rx="0.99" ry="2.24" fill="#231f20"></ellipse><ellipse cx="213.75" cy="62.18" rx="0.99" ry="2.24" fill="#231f20"></ellipse><path d="M227.81,186.71a22.89,22.89,0,0,1-23.62,13.75,23.08,23.08,0,0,1-6.39-1.69,22.87,22.87,0,0,1-12.06-30c.25-.57.51-1.13.8-1.66a22.86,22.86,0,0,1,41.73,18.4h0C228.13,185.92,228,186.32,227.81,186.71Z" fill="#fff"></path><path d="M206.81,201.11a24.21,24.21,0,0,1-2.68-.15,23.38,23.38,0,0,1-18.85-32.38c.29-.67.55-1.21.82-1.71A23.33,23.33,0,0,1,207,154.37a23.37,23.37,0,0,1,21.76,31.31c-.14.41-.3.82-.47,1.23h0a23.41,23.41,0,0,1-21.46,14.2Zm0-45.74a22.36,22.36,0,0,0-19.83,12,18.07,18.07,0,0,0-.78,1.63,22.37,22.37,0,0,0,41.15,17.54h0c.16-.38.31-.76.44-1.15a22.26,22.26,0,0,0-.42-16.33,22.47,22.47,0,0,0-11.83-11.87,22.08,22.08,0,0,0-8.57-1.79Z" fill="#231f20"></path><polygon points="210.6 168.76 199.75 171.25 198.76 182.34 209 186.71 216.32 178.31 210.6 168.76" fill="#231f20"></polygon><path d="M209,187.21a.65.65,0,0,1-.19,0l-10.25-4.37a.52.52,0,0,1-.3-.51l1-11.09a.51.51,0,0,1,.39-.44l10.85-2.49a.49.49,0,0,1,.54.23l5.72,9.55a.51.51,0,0,1-.05.59L209.38,187A.48.48,0,0,1,209,187.21ZM199.29,182l9.58,4.08,6.84-7.84-5.35-8.93-10.15,2.32Z" fill="#231f20"></path><path d="M223.13,161.77l-10.58,2.42L207,154.87a22.8,22.8,0,0,1,16.16,6.9Z" fill="#231f20"></path><path d="M212.55,164.69a.48.48,0,0,1-.43-.25l-5.58-9.32a.5.5,0,0,1,0-.5.48.48,0,0,1,.43-.25h0a23.34,23.34,0,0,1,16.51,7,.51.51,0,0,1,.12.49.49.49,0,0,1-.37.34l-10.58,2.42Zm-4.68-9.3,4.92,8.23,9.34-2.14a21.94,21.94,0,0,0-6.59-4.32A22.27,22.27,0,0,0,207.87,155.39Z" fill="#231f20"></path><path d="M192.18,195.34a22.78,22.78,0,0,1-8.12-15l.69-.61,9.61,5.62Z" fill="#231f20"></path><path d="M192.18,195.84a.47.47,0,0,1-.32-.12,23.14,23.14,0,0,1-8.29-15.3.48.48,0,0,1,.16-.43l.69-.62a.51.51,0,0,1,.59-.05l9.61,5.62a.5.5,0,0,1,.23.54l-2.19,10a.49.49,0,0,1-.32.36A.45.45,0,0,1,192.18,195.84Zm-7.59-15.28a22.2,22.2,0,0,0,7.28,13.86l1.93-8.8-9-5.26Z" fill="#231f20"></path><path d="M220.61,195.94a22.84,22.84,0,0,1-16.42,4.52l5.67-8.48,10.71,3Z" fill="#231f20"></path><path d="M206.81,201.11a24.21,24.21,0,0,1-2.68-.15.5.5,0,0,1-.36-.78l5.68-8.48a.49.49,0,0,1,.55-.2l10.71,3a.49.49,0,0,1,.36.46l0,.92a.5.5,0,0,1-.2.42A23.22,23.22,0,0,1,206.81,201.11ZM205.07,200a22.24,22.24,0,0,0,15-4.34v-.3l-10-2.84Z" fill="#231f20"></path><path d="M196.59,166.12l-10.05,1a22.76,22.76,0,0,1,12.2-10.78Z" fill="#231f20"></path><path d="M186.54,167.61a.49.49,0,0,1-.41-.22.47.47,0,0,1,0-.51,23.31,23.31,0,0,1,12.46-11,.51.51,0,0,1,.5.09.53.53,0,0,1,.17.49l-2.15,9.78a.51.51,0,0,1-.44.4l-10,1Zm11.51-10.47a22.31,22.31,0,0,0-10.62,9.38l8.75-.86Zm-1.46,9h0Z" fill="#231f20"></path><path d="M228.27,185.51l-6.27-8,5.83-8.71A22.78,22.78,0,0,1,228.27,185.51Z" fill="#231f20"></path><path d="M228.27,186a.49.49,0,0,1-.39-.19l-6.27-8a.5.5,0,0,1,0-.59l5.83-8.71a.51.51,0,0,1,.47-.22.51.51,0,0,1,.41.31,23.28,23.28,0,0,1,.45,17,.49.49,0,0,1-.39.33Zm-5.65-8.5,5.48,7a22.23,22.23,0,0,0-.39-14.58Z" fill="#231f20"></path><path d="M222.1,128.16s-4.5-2-4.5-4.5v-6.88h9v6.88C226.61,126.15,222.1,128.16,222.1,128.16Z" fill="#fff"></path><path d="M222.1,128.66a.45.45,0,0,1-.2,0c-.2-.09-4.8-2.18-4.8-5v-6.88a.5.5,0,0,1,.5-.5h9a.51.51,0,0,1,.5.5v6.88c0,2.78-4.61,4.87-4.8,5A.52.52,0,0,1,222.1,128.66Zm-4-11.38v6.38c0,1.67,2.72,3.33,4,4,1.29-.62,4-2.28,4-4v-6.38Z" fill="#231f20"></path><path d="M166.43,105.51s-51,81.24-42.82,94.14,53.17-11.43,53.17-11.43l-5.18-11.76-20.24-.56c2.74-8.22,17-29.62,17-29.62Z" fill="#231f20"></path><path d="M132.9,203.92c-4.38,0-7.89-1.13-9.71-4-8.29-13,40.72-91.35,42.81-94.68a.49.49,0,0,1,.55-.22.5.5,0,0,1,.37.46l2,40.78a.46.46,0,0,1-.08.3c-.14.21-13.56,20.37-16.73,28.86l19.55.54a.51.51,0,0,1,.45.3L177.24,188a.49.49,0,0,1-.22.64C175.57,189.45,148.61,203.92,132.9,203.92ZM166,107.13c-3,4.91-13.76,22.41-23.62,40.85-19.28,36-20.62,47.84-18.35,51.41,4.06,6.38,18.05,2.94,29.07-1.08a202.84,202.84,0,0,0,23-10.31L171.27,177l-19.93-.55a.55.55,0,0,1-.39-.21.52.52,0,0,1-.07-.45c2.65-7.93,15.65-27.59,17-29.6Z" fill="#231f20"></path><path d="M179.52,188.22s4.81-.86,7.39-4.09,2.59-8.95,4.49-10,7.16-.14,6.37-2.64-5.19-1.9-5.19-1.9,7.59-1,5.19-3.08-7.39-1.18-7.39-1.18,9.38-1.32,5.72-3.37-7.68,1-7.68,1,7.05-3.15,4.43-4.07-8.49,1.58-10.1,4.07-1.32,6.6-7.34,10.85Z" fill="#fff"></path><path d="M179.52,188.72a.49.49,0,0,1-.48-.36L174.93,174a.53.53,0,0,1,.19-.55,14.82,14.82,0,0,0,6-8.12,12.54,12.54,0,0,1,1.16-2.59c1.67-2.58,7.69-5.32,10.69-4.27.73.26.9.69.91,1a1.84,1.84,0,0,1-.74,1.29,6.09,6.09,0,0,1,3.15.77c.83.47,1.2,1,1.09,1.57-.14.73-1.16,1.3-2.41,1.73a6.42,6.42,0,0,1,3.07,1.31,1.39,1.39,0,0,1,.6,1.48c-.23.79-1.38,1.35-2.64,1.75a3.11,3.11,0,0,1,2.19,2,1.6,1.6,0,0,1-.13,1.43c-.59.9-2.11,1.07-3.73,1.25a8.8,8.8,0,0,0-2.74.55c-.76.41-1.23,2.07-1.74,3.82a17,17,0,0,1-2.6,6c-2.67,3.34-7.49,4.24-7.69,4.28ZM176,174.06l3.88,13.57c1.22-.3,4.66-1.33,6.65-3.81a16.33,16.33,0,0,0,2.42-5.69c.59-2,1.09-3.81,2.23-4.42a9.49,9.49,0,0,1,3.1-.67c1.19-.13,2.67-.29,3-.8,0-.05.13-.2,0-.57-.65-2.07-4.6-1.57-4.65-1.57a.5.5,0,0,1-.56-.43.51.51,0,0,1,.43-.56c2.37-.32,5-1.1,5.22-1.76,0-.14-.19-.36-.29-.44-1.85-1.59-5.52-1.26-6.64-1.11l-.35,0a.51.51,0,0,1-.57-.42.5.5,0,0,1,.41-.57l.42-.06c2.95-.46,5.63-1.32,5.73-1.87,0,0-.08-.23-.59-.51a5.62,5.62,0,0,0-4.58-.29c-1,.56-2,1-2.64,1.34a.51.51,0,0,1-.64-.21.5.5,0,0,1,.13-.65,10.26,10.26,0,0,1,2.75-1.42c1.2-.7,2-1.35,2.06-1.66h0a1,1,0,0,0-.25-.12c-2.29-.8-8,1.51-9.51,3.87a11.88,11.88,0,0,0-1.06,2.39A15.64,15.64,0,0,1,176,174.06Z" fill="#231f20"></path><polygon points="175.41 173.86 169.25 175.33 174.04 191.85 179.52 188.22 175.41 173.86" fill="#fff"></polygon><path d="M174,192.35l-.17,0a.49.49,0,0,1-.31-.33l-4.79-16.52a.48.48,0,0,1,0-.39.49.49,0,0,1,.32-.24l6.16-1.46a.49.49,0,0,1,.59.34L180,188.09a.49.49,0,0,1-.2.55l-5.48,3.63A.46.46,0,0,1,174,192.35Zm-4.16-16.66,4.46,15.37,4.6-3.05-3.88-13.55Z" fill="#231f20"></path><path d="M242.22,105.51s51,81.24,42.81,94.14-53.17-11.43-53.17-11.43L237,176.46l20.25-.56c-2.74-8.22-17-29.62-17-29.62Z" fill="#231f20"></path><path d="M275.74,203.92c-15.7,0-42.67-14.47-44.12-15.26a.5.5,0,0,1-.22-.64l5.18-11.76a.52.52,0,0,1,.45-.3l19.55-.54c-3.16-8.49-16.59-28.65-16.73-28.86a.52.52,0,0,1-.08-.3l1.95-40.78a.5.5,0,0,1,.37-.46.49.49,0,0,1,.55.22c2.09,3.33,51.11,81.66,42.82,94.68C283.63,202.79,280.12,203.92,275.74,203.92ZM232.5,188a202.42,202.42,0,0,0,23.05,10.31c11,4,25,7.46,29.06,1.08,2.27-3.57.93-15.39-18.34-51.41-9.87-18.44-20.59-35.94-23.63-40.85l-1.86,39c1.33,2,14.34,21.67,17,29.6a.51.51,0,0,1-.06.45.55.55,0,0,1-.4.21l-19.93.55Z" fill="#231f20"></path><path d="M229.12,188.22s-4.8-.86-7.39-4.09-2.58-8.95-4.49-10-7.15-.14-6.36-2.64,5.18-1.9,5.18-1.9-7.59-1-5.18-3.08,7.39-1.18,7.39-1.18-9.39-1.32-5.72-3.37,7.67,1,7.67,1-7.05-3.15-4.43-4.07,8.49,1.58,10.11,4.07,1.32,6.6,7.33,10.85Z" fill="#fff"></path><path d="M229.12,188.72H229c-.2,0-5-.94-7.69-4.28a17.13,17.13,0,0,1-2.6-6c-.5-1.75-1-3.41-1.74-3.82a8.73,8.73,0,0,0-2.74-.55c-1.61-.18-3.14-.35-3.73-1.25a1.63,1.63,0,0,1-.13-1.43,3.11,3.11,0,0,1,2.19-2c-1.26-.4-2.41-1-2.64-1.75a1.39,1.39,0,0,1,.6-1.48,6.5,6.5,0,0,1,3.08-1.31c-1.26-.43-2.28-1-2.41-1.73-.11-.57.25-1.1,1.08-1.57a6.13,6.13,0,0,1,3.15-.77,1.88,1.88,0,0,1-.74-1.29c0-.32.18-.75.92-1,3-1.05,9,1.69,10.69,4.27a12.53,12.53,0,0,1,1.15,2.59,14.92,14.92,0,0,0,6.05,8.12.51.51,0,0,1,.19.55l-4.11,14.36A.49.49,0,0,1,229.12,188.72ZM215,170.05c-1.23,0-3.17.23-3.61,1.61-.11.38,0,.53,0,.58.33.51,1.81.67,3,.8a9.55,9.55,0,0,1,3.11.67c1.13.61,1.64,2.38,2.22,4.42a16.33,16.33,0,0,0,2.42,5.69c2,2.48,5.43,3.51,6.65,3.81l3.88-13.57a15.64,15.64,0,0,1-6.12-8.39,12.48,12.48,0,0,0-1.05-2.39c-1.53-2.36-7.22-4.67-9.52-3.87a.69.69,0,0,0-.26.14c0,.29.86.93,2.06,1.64a10.06,10.06,0,0,1,2.77,1.42.5.5,0,0,1-.51.86c-.66-.3-1.68-.78-2.64-1.34a5.65,5.65,0,0,0-4.59.29c-.51.28-.6.48-.59.51.1.55,2.78,1.41,5.73,1.87l.42.06a.5.5,0,0,1,.41.57.51.51,0,0,1-.56.42l-.35,0c-1.12-.15-4.8-.48-6.65,1.11-.1.08-.33.3-.29.44.2.66,2.86,1.44,5.22,1.76a.5.5,0,1,1-.13,1S215.56,170.05,215,170.05Z" fill="#231f20"></path><polygon points="233.23 173.86 239.39 175.33 234.6 191.85 229.12 188.22 233.23 173.86" fill="#fff"></polygon><path d="M234.6,192.35a.48.48,0,0,1-.28-.08l-5.47-3.63a.48.48,0,0,1-.21-.55l4.11-14.37a.49.49,0,0,1,.6-.34l6.16,1.46a.49.49,0,0,1,.31.24.48.48,0,0,1,.05.39L235.08,192a.49.49,0,0,1-.31.33A.51.51,0,0,1,234.6,192.35ZM229.7,188l4.61,3.05,4.45-15.37-5.18-1.23Z" fill="#231f20"></path><path d="M166.72,112.18a.5.5,0,0,1-.31-.89c16-13,27.18-11.81,27.64-11.76a.51.51,0,0,1,.44.56.5.5,0,0,1-.56.44c-.11,0-11.27-1.18-26.89,11.54A.5.5,0,0,1,166.72,112.18Z" fill="#231f20"></path><path d="M242,109.65a.47.47,0,0,1-.28-.09C232.42,103,216.64,103,216.43,103h0a.5.5,0,0,1-.5-.49.51.51,0,0,1,.5-.51c.67,0,16.31,0,25.91,6.77a.5.5,0,0,1,.12.7A.48.48,0,0,1,242,109.65Z" fill="#231f20"></path><path d="M170.51,254.3h0a.51.51,0,0,1-.46-.54l3.88-47.82a.5.5,0,0,1,.54-.46.49.49,0,0,1,.45.54L171,253.84A.5.5,0,0,1,170.51,254.3Z" fill="#fff"></path><path d="M206.77,256.45h0a.51.51,0,0,1-.46-.54l1.88-21.52a.5.5,0,0,1,1,.09L207.27,256A.5.5,0,0,1,206.77,256.45Z" fill="#fff"></path></g></svg>